<svg width="16" height="16" viewBox="0 0 16 16" fill="none" xmlns="http://www.w3.org/2000/svg">
<path d="M4.72437 1.11826C4.78852 1.1824 4.83942 1.25855 4.87414 1.34237C4.90886 1.42618 4.92674 1.51601 4.92674 1.60673C4.92674 1.69745 4.90886 1.78728 4.87414 1.8711C4.83942 1.95491 4.78852 2.03106 4.72437 2.0952L3.14071 3.67886H9.48528C12.7659 3.67886 15.4254 6.33836 15.4254 9.61895C15.4254 12.8995 12.7659 15.559 9.48528 15.559C6.20469 15.559 3.54519 12.8995 3.54519 9.61895C3.54519 9.43576 3.61796 9.26008 3.74749 9.13054C3.87703 9.00101 4.05271 8.92824 4.2359 8.92824C4.41909 8.92824 4.59477 9.00101 4.7243 9.13054C4.85384 9.26008 4.92661 9.43576 4.92661 9.61895C4.92661 10.5206 5.19397 11.4019 5.69488 12.1516C6.1958 12.9013 6.90776 13.4856 7.74075 13.8306C8.57374 14.1757 9.49034 14.2659 10.3746 14.09C11.2589 13.9141 12.0712 13.48 12.7088 12.8424C13.3463 12.2049 13.7805 11.3926 13.9564 10.5083C14.1323 9.62401 14.042 8.70741 13.6969 7.87442C13.3519 7.04143 12.7676 6.32946 12.0179 5.82855C11.2683 5.32764 10.3869 5.06027 9.48528 5.06027H3.14071L4.72437 6.64393C4.85392 6.77348 4.9267 6.94919 4.9267 7.1324C4.9267 7.31561 4.85392 7.49132 4.72437 7.62087C4.59482 7.75042 4.41911 7.8232 4.2359 7.8232C4.05269 7.8232 3.87698 7.75042 3.74743 7.62087L0.984595 4.85803C0.920437 4.79389 0.869544 4.71774 0.834821 4.63393C0.800098 4.55012 0.782227 4.46029 0.782227 4.36957C0.782227 4.27884 0.800098 4.18901 0.834821 4.1052C0.869544 4.02139 0.920437 3.94524 0.984595 3.8811L3.74743 1.11826C3.81157 1.0541 3.88772 1.00321 3.97153 0.968488C4.05535 0.933765 4.14518 0.915894 4.2359 0.915894C4.32662 0.915894 4.41645 0.933765 4.50026 0.968488C4.58408 1.00321 4.66023 1.0541 4.72437 1.11826Z" fill="#9698BC"/>
</svg>
