<svg width="16" height="15" viewBox="0 0 16 15" fill="none" xmlns="http://www.w3.org/2000/svg">
<g clip-path="url(#clip0_510_2285)">
<path d="M4.52136 12.1739H2.69527C2.45319 12.1737 2.22109 12.0774 2.04992 11.9062C1.87874 11.7351 1.78247 11.503 1.78223 11.2609V9.4348H2.69527V11.2609H4.52136V12.1739ZM1.78223 5.78262H2.69527V7.60871H1.78223V5.78262ZM12.7387 3.95654H11.8257V2.13045H9.99962V1.21741H11.8257C12.0678 1.21765 12.2999 1.31392 12.4711 1.4851C12.6422 1.65627 12.7385 1.88837 12.7387 2.13045V3.95654ZM6.34744 1.21741H8.17353V2.13045H6.34744V1.21741ZM2.69527 3.95654H1.78223V2.13045C1.78247 1.88837 1.87874 1.65627 2.04992 1.4851C2.22109 1.31392 2.45319 1.21765 2.69527 1.21741H4.52136V2.13045H2.69527V3.95654ZM13.1953 14.9131C13.1353 14.9131 13.0759 14.9013 13.0205 14.8784C12.9652 14.8554 12.9148 14.8218 12.8725 14.7793L10.0704 11.9772L8.55336 14.2534C8.50528 14.3255 8.43768 14.3824 8.35845 14.4175C8.27922 14.4526 8.19164 14.4644 8.10593 14.4516C8.02023 14.4388 7.93995 14.4018 7.87448 14.3451C7.809 14.2883 7.76103 14.2141 7.73618 14.131L4.99705 5.0006C4.97339 4.92166 4.97154 4.83778 4.9917 4.75787C5.01186 4.67796 5.05327 4.605 5.11155 4.54673C5.16982 4.48845 5.24278 4.44704 5.32269 4.42688C5.4026 4.40672 5.48648 4.40857 5.56542 4.43223L14.6959 7.17136C14.7789 7.19621 14.8531 7.24418 14.9099 7.30966C14.9666 7.37513 15.0036 7.45541 15.0164 7.54111C15.0293 7.62682 15.0174 7.7144 14.9823 7.79363C14.9472 7.87286 14.8903 7.94046 14.8182 7.98854L12.542 9.50556L15.3441 12.3077C15.4297 12.3933 15.4778 12.5094 15.4778 12.6305C15.4778 12.7515 15.4297 12.8676 15.3441 12.9532L13.518 14.7793C13.4757 14.8218 13.4254 14.8554 13.37 14.8784C13.3146 14.9013 13.2552 14.9131 13.1953 14.9131ZM13.1953 13.811L14.3758 12.6305L11.1094 9.36404L13.5043 7.76712L6.11553 5.55071L8.33194 12.9395L9.92886 10.5446L13.1953 13.811Z" fill="white"/>
</g>
<defs>
<clipPath id="clip0_510_2285">
<rect width="14.6087" height="14.6087" fill="white" transform="translate(0.869141 0.304321)"/>
</clipPath>
</defs>
</svg>
